<?xml version="1.0" standalone="no"?>
<!DOCTYPE svg PUBLIC "-//W3C//DTD SVG 20010904//EN"
 "http://www.w3.org/TR/2001/REC-SVG-20010904/DTD/svg10.dtd">
<svg version="1.0" xmlns="http://www.w3.org/2000/svg"
 width="300.000000pt" height="300.000000pt" viewBox="0 0 300.000000 300.000000"
 preserveAspectRatio="xMidYMid meet">
<metadata>
Created by potrace 1.11, written by Peter Selinger 2001-2013
</metadata>
<g transform="translate(0.000000,300.000000) scale(0.100000,-0.100000)"
fill="#000000" stroke="none">
<path d="M1500 2419 l0 -431 -41 61 c-108 162 -297 251 -534 251 -209 0 -367
-60 -495 -189 -87 -87 -139 -178 -172 -298 -30 -111 -30 -325 0 -436 95 -350
435 -548 810 -471 124 25 233 83 322 173 42 42 84 87 93 101 15 24 16 17 16
-122 l1 -148 65 0 65 0 1 288 c0 210 3 280 11 262 52 -125 92 -192 139 -234
28 -26 128 -89 221 -142 326 -184 437 -297 438 -442 0 -122 -76 -192 -210
-192 -106 0 -276 69 -380 155 -77 63 -95 61 -162 -21 -81 -100 -94 -127 -80
-158 14 -31 106 -105 191 -153 154 -87 299 -127 461 -127 129 0 219 25 308 84
164 110 247 358 198 591 -18 84 -42 132 -101 197 -63 70 -139 118 -343 217
-252 123 -363 199 -403 276 -63 125 40 228 260 259 116 16 273 -15 398 -79 23
-11 48 -21 56 -21 20 0 60 48 97 116 30 56 32 64 21 92 -15 35 -55 64 -167
120 -247 123 -485 135 -677 35 -104 -55 -175 -131 -231 -245 l-46 -93 0 578 0
577 -65 0 -65 0 0 -431z m-379 -273 c95 -33 155 -70 219 -135 216 -221 212
-613 -9 -831 -78 -77 -142 -113 -247 -140 -271 -70 -546 44 -658 270 -121 247
-62 592 128 742 62 49 151 92 226 107 30 6 64 13 75 15 48 11 199 -5 266 -28z
m1049 -106 c0 -6 -60 -55 -132 -109 -73 -55 -185 -147 -248 -205 -89 -82 -116
-102 -121 -89 -11 33 2 59 36 72 18 6 72 46 120 89 87 77 320 252 337 252 4 0
8 -5 8 -10z m-141 -36 c-13 -14 -45 -37 -70 -50 -26 -12 -81 -51 -124 -84 -42
-34 -80 -59 -83 -55 -13 14 125 126 208 170 47 24 87 44 89 45 3 0 -6 -12 -20
-26z m387 1 c51 -13 107 -30 125 -38 l34 -14 -33 -17 c-33 -17 -34 -17 -27 3
4 13 2 21 -5 21 -20 0 -114 -51 -197 -108 -46 -30 -85 -53 -88 -50 -10 9 46
68 64 68 10 0 26 9 36 20 10 11 38 33 62 48 40 25 54 42 35 42 -10 0 -140 -76
-177 -104 -46 -34 -64 -42 -25 -10 19 16 58 50 85 76 42 40 46 48 29 48 -12 0
-27 -7 -34 -16 -12 -13 -202 -148 -240 -169 -37 -21 32 43 105 95 44 32 93 75
108 94 15 20 33 36 40 36 7 0 53 -11 103 -25z m-226 -16 c-12 -21 -37 -35 -47
-25 -6 6 36 45 50 46 4 0 3 -9 -3 -21z m36 -6 c-10 -10 -19 5 -10 18 6 11 8
11 12 0 2 -7 1 -15 -2 -18z m350 -92 c-48 -49 -100 -80 -113 -68 -3 4 0 14 8
23 17 21 128 94 143 94 5 0 -12 -22 -38 -49z m104 9 c0 -10 -102 -80 -117 -80
-4 0 13 20 37 45 41 42 80 59 80 35z m-220 -25 c-16 -20 -70 -48 -77 -41 -9 9
8 26 45 45 41 21 52 20 32 -4z m250 -14 c0 -11 -69 -55 -76 -48 -6 6 54 57 67
57 5 0 9 -4 9 -9z m-805 -171 c-157 -170 -212 -223 -227 -214 -4 3 -10 20 -14
39 -6 32 -1 40 67 115 41 45 110 108 154 142 l80 60 -70 -66 c-38 -36 -78 -68
-87 -71 -10 -4 -18 -11 -18 -16 0 -6 -25 -36 -55 -68 -53 -55 -69 -91 -42 -91
6 0 24 15 39 34 29 36 315 306 324 306 3 0 -65 -76 -151 -170z m590 110 c-10
-11 -28 -20 -39 -20 -18 0 -17 3 9 20 39 26 53 26 30 0z m125 -41 c0 -11 -60
-12 -77 -1 -6 4 9 8 33 9 24 1 44 -3 44 -8z m-785 -198 c-3 -6 -11 -11 -17
-11 -6 0 -6 6 2 15 14 17 26 13 15 -4z m21 -28 c-4 -9 -2 -20 5 -23 8 -6 8 -9
0 -14 -6 -4 -11 -1 -11 5 0 7 -22 -9 -48 -36 -82 -85 -99 -98 -106 -79 -8 22
37 78 102 125 62 44 67 46 58 22z m5 -70 c-18 -32 -100 -107 -108 -100 -4 4
18 32 47 62 54 55 80 71 61 38z m59 -26 c0 -17 -107 -146 -127 -154 -8 -3 -18
-1 -22 6 -5 8 19 40 64 87 72 75 85 84 85 61z m30 -24 c0 -10 -32 -43 -42 -43
-5 0 -1 11 8 25 15 23 34 33 34 18z m40 -32 c0 -6 -4 -13 -10 -16 -5 -3 -10 1
-10 9 0 9 5 16 10 16 6 0 10 -4 10 -9z m-37 -18 c-4 -10 -19 -36 -34 -58 -52
-74 -58 -80 -70 -68 -17 17 -3 46 47 97 48 48 68 58 57 29z m87 -11 c0 -5 -9
-17 -20 -27 -22 -20 -26 -14 -10 16 11 19 30 26 30 11z m-262 -13 c-2 -6 -8
-10 -13 -10 -5 0 -11 4 -13 10 -2 6 4 11 13 11 9 0 15 -5 13 -11z m172 -64
c-24 -36 -39 -69 -35 -73 4 -4 14 4 23 18 24 36 101 114 108 107 3 -3 -6 -28
-20 -56 -14 -28 -26 -53 -26 -56 0 -2 21 11 46 30 44 34 72 45 59 25 -12 -20
-138 -110 -153 -110 -19 0 -62 39 -62 56 0 15 90 138 96 131 3 -3 -13 -35 -36
-72z m176 -34 c-40 -45 -133 -109 -145 -102 -9 6 6 20 46 44 32 20 67 45 78
57 10 11 23 20 28 20 6 0 2 -9 -7 -19z m70 -16 c-7 -18 -2 -19 27 -4 29 15 16
2 -67 -65 -63 -52 -106 -70 -106 -46 0 6 5 10 11 10 14 0 131 82 125 88 -3 2
-18 -5 -35 -17 -16 -12 -34 -20 -39 -19 -5 2 -25 -11 -45 -29 -19 -17 -37 -29
-40 -26 -9 8 94 92 107 87 6 -2 22 5 36 16 30 24 34 24 26 5z m68 -100 c-20
-25 -40 -45 -44 -45 -5 0 -16 -7 -24 -16 -20 -19 -80 -10 -72 11 3 8 0 15 -7
18 -17 5 72 62 98 62 19 1 15 -6 -24 -42 -63 -58 -39 -54 40 7 35 27 65 50 67
50 2 0 -13 -20 -34 -45z m96 32 c0 -7 -126 -104 -142 -110 -29 -10 -21 -2 39
44 67 52 103 75 103 66z m50 -46 c0 -26 -135 -179 -147 -167 -15 15 15 68 68
119 58 55 79 68 79 48z m-110 -40 c0 -17 -50 -62 -62 -55 -7 5 1 17 23 35 38
32 39 32 39 20z m147 -7 c4 -12 -11 -33 -50 -70 -90 -88 -99 -63 -14 39 43 51
54 56 64 31z m76 -29 c15 -13 27 -28 27 -33 0 -5 -25 -35 -55 -68 -44 -46 -53
-52 -41 -28 8 17 22 37 31 44 9 7 23 26 31 42 23 45 -5 35 -43 -15 -28 -37
-93 -88 -93 -72 0 24 92 155 108 155 4 0 19 -12 35 -25z m107 -35 c0 -5 -14
-17 -31 -26 l-32 -16 22 31 c21 28 41 34 41 11z m-13 -51 c-31 -44 -159 -169
-172 -169 -27 0 -15 25 33 73 39 38 136 114 150 116 2 1 -3 -8 -11 -20z m108
-77 c20 -46 34 -131 23 -138 -5 -3 -6 -25 -3 -48 7 -42 5 -44 -37 -76 -23 -19
-61 -52 -84 -74 -34 -35 -204 -152 -204 -142 0 2 37 30 81 63 45 32 96 72 114
88 17 17 51 47 73 67 41 35 55 68 30 68 -7 0 -33 -20 -58 -44 -25 -24 -110
-94 -190 -156 l-145 -111 125 120 c69 66 145 137 170 157 48 40 115 125 115
146 0 14 -19 15 -49 3 -17 -8 -17 -7 -1 24 9 18 14 36 10 39 -8 8 -195 -179
-195 -196 0 -19 17 -11 105 48 41 28 75 48 75 44 0 -3 -15 -26 -32 -51 -32
-44 -83 -79 -123 -83 -48 -5 -55 -1 -55 33 0 30 9 42 81 102 74 62 138 140
126 152 -3 2 -48 -39 -100 -91 -52 -53 -99 -96 -105 -96 -34 0 -10 38 86 135
l106 107 24 -29 c12 -15 29 -43 37 -61z m-305 18 c-11 -20 -40 -28 -40 -10 0
9 28 29 43 30 4 0 3 -9 -3 -20z m26 -57 c-10 -10 -19 5 -10 18 6 11 8 11 12 0
2 -7 1 -15 -2 -18z m64 -257 c0 -3 -4 -8 -10 -11 -5 -3 -10 -1 -10 4 0 6 5 11
10 11 6 0 10 -2 10 -4z m220 -20 c0 -19 -16 -34 -72 -72 -40 -26 -96 -66 -124
-90 -46 -39 -277 -184 -317 -200 -11 -4 -17 -1 -17 8 0 8 30 32 68 53 114 68
232 149 346 239 60 47 111 86 113 86 1 0 3 -11 3 -24z m-897 -39 c28 -12 27
-12 -17 -12 -30 0 -46 4 -46 13 0 15 26 15 63 -1z m106 -47 c-8 -4 -25 -11
-39 -14 l-25 -7 23 20 c13 11 30 17 39 14 12 -5 13 -7 2 -13z m-190 -16 c-12
-14 -61 -44 -74 -44 -3 0 -5 5 -5 10 0 6 19 20 43 30 51 24 53 24 36 4z m34
-44 c-40 -38 -89 -55 -81 -27 5 12 95 67 113 67 6 0 -9 -18 -32 -40z m137 21
c0 -5 -12 -18 -27 -29 -44 -31 -133 -73 -133 -63 0 9 71 70 105 89 24 14 55
15 55 3z m80 -11 c0 -12 -36 -35 -69 -45 -32 -10 -19 10 23 36 35 21 46 24 46
9z m115 -30 c-16 -16 -33 -30 -39 -30 -6 0 -36 -18 -67 -40 -32 -22 -62 -40
-68 -40 -6 0 -11 -4 -11 -10 0 -5 6 -10 13 -10 12 0 114 56 200 108 54 34 46
20 -10 -17 -70 -46 -129 -99 -120 -108 9 -8 13 -6 123 68 38 25 92 58 119 73
l50 28 -35 -32 c-19 -17 -62 -48 -95 -68 -33 -20 -76 -54 -95 -75 l-36 -40
-69 23 c-39 12 -94 34 -124 48 -53 24 -54 25 -30 38 33 18 44 17 28 -3 -13
-15 -11 -16 21 -11 45 8 108 37 189 88 77 48 95 51 56 10z m575 10 c-12 -23
-103 -86 -180 -125 -46 -23 -183 -75 -198 -75 -16 0 57 45 129 78 46 22 120
63 164 91 89 56 101 60 85 31z m-475 -145 c-16 -14 -32 -20 -33 -15 -6 17 19
40 42 40 19 -1 18 -3 -9 -25z m-55 6 c0 -6 -4 -13 -10 -16 -5 -3 -10 1 -10 9
0 9 5 16 10 16 6 0 10 -4 10 -9z"/>
</g>
</svg>
